<svg id="SvgjsSvg1001" width="288" height="288" xmlns="http://www.w3.org/2000/svg" version="1.1" xmlns:xlink="http://www.w3.org/1999/xlink" xmlns:svgjs="http://svgjs.com/svgjs"><defs id="SvgjsDefs1002"></defs><g id="SvgjsG1008"><svg xmlns="http://www.w3.org/2000/svg" xmlns:xlink="http://www.w3.org/1999/xlink" width="288" height="288" viewBox="0 0 71 75"><defs><polygon id="a" points=".026 0 70.133 0 70.133 70.918 .026 70.918" fill="#384c6d" class="color000 svgShape"></polygon></defs><g fill="none" fill-rule="evenodd"><g transform="translate(0 3.084)" fill="#384c6d" class="color000 svgShape"><mask id="b" fill="#fff"><use xlink:href="#a"></use></mask><path fill="#384c6d" d="M56.665553 15.4194079C60.9157201 15.4194079 64.375257 11.9591 64.375257 7.70970395 64.375257 3.46030787 60.9186112 0 56.665553 0 52.416157 0 48.9558491 3.46030787 48.9558491 7.70970395 48.9558491 11.9591 52.416157 15.4194079 56.665553 15.4194079zM56.665553 3.08388158C59.2163086 3.08388158 61.2913754 5.15971937 61.2913754 7.70970395 61.2913754 10.2604595 59.2193925 12.3355263 56.665553 12.3355263 54.1155685 12.3355263 52.0397307 10.2604595 52.0397307 7.70970395 52.0397307 5.15971937 54.1184596 3.08388158 56.665553 3.08388158zM70.0966283 41.0616905L68.1194747 25.2598813C67.6412803 21.4086914 64.3511642 18.5063734 60.4714484 18.5063734L52.8573448 18.5063734C51.999833 18.5063734 51.1363461 18.6576763 50.2884714 18.9595112 49.4866622 19.2434211 49.0672543 20.1257967 49.3511642 20.9276059 49.6379652 21.7294151 50.5166787 22.1519069 51.3184879 21.8649131 51.8334961 21.6827714 52.3513955 21.5902549 52.8573448 21.5902549L60.4714484 21.5902549C62.7993935 21.5902549 64.7705721 23.3324553 65.0604569 25.6422826L67.0368395 41.4440918C67.0925421 41.8883635 66.9599352 42.3197214 66.6640753 42.65625 66.3674445 42.9922003 65.9578665 43.177426 65.5076198 43.177426L64.375257 43.177426C63.5643889 43.177426 62.8949938 43.7999846 62.8371711 44.6085398L61.3968056 64.764597 51.9321803 64.764597 50.8223684 49.231471C50.7635819 48.3828253 50.0174753 47.7165142 49.1749974 47.8032484 48.3271227 47.8618421 47.6856754 48.6019737 47.7475457 49.4498484L48.9597039 66.4148592C49.0213816 67.2197523 49.6928968 67.8453947 50.4977899 67.8453947L62.8333162 67.8453947C63.6418714 67.8453947 64.3143503 67.2197523 64.369282 66.4179431L65.8096474 46.2522487C67.0246968 46.1724532 68.1624563 45.6167763 68.9739027 44.6981651 69.8526162 43.7013004 70.2629652 42.3785079 70.0966283 41.0616905zM20.9607576 48.1548109C20.1001619 48.0742444 19.3758352 48.7345806 19.3141576 49.5822625L18.2284385 64.7615132 8.76072934 64.7615132 7.32344778 44.6048777C7.26466129 43.8007556 6.59314607 43.1743421 5.78150699 43.1743421L4.64991519 43.1743421C4.19966848 43.1743421 3.78931949 42.9891165 3.4934596 42.6533589 3.19759971 42.3168303 3.0649928 41.8883635 3.12069542 41.4412007L5.09707802 25.6391987C5.38407175 23.3293714 7.35505757 21.5871711 9.68608655 21.5871711L17.3001902 21.5871711C17.6457777 21.5871711 18.0123741 21.6397898 18.4626208 21.7602539 19.2862099 21.9635973 20.1310007 21.4825118 20.3470652 20.6589227 20.5633224 19.8359118 20.0693231 18.99035 19.2463122 18.7750565 18.5341283 18.5898309 17.9167737 18.5032895 17.2971063 18.5032895L9.68608655 18.5032895C5.80637079 18.5032895 2.51914576 21.4058003 2.03806024 25.2567974L.0609066612 41.0586066C-.10234632 42.375424.304918791 43.6984092 1.1836323 44.694503 1.99527138 45.6136924 3.1328382 46.1685984 4.34808028 46.2491648L5.78825298 66.4140882C5.8462685 67.2197523 6.51855469 67.8453947 7.32344778 67.8453947L19.6589741 67.8453947C20.4669511 67.8453947 21.1392373 67.2197523 21.197831 66.4140882L22.3853182 49.8014109C22.4469958 48.9535362 21.8055484 48.2164885 20.9607576 48.1548109zM13.4912109 15.4194079C17.741378 15.4194079 21.2009149 11.9591 21.2009149 7.70970395 21.2009149 3.46030787 17.7442691 0 13.4912109 0 9.24181486 0 5.78150699 3.46030787 5.78150699 7.70970395 5.78150699 11.9591 9.24181486 15.4194079 13.4912109 15.4194079zM13.4912109 3.08388158C16.0419665 3.08388158 18.1170333 5.15971937 18.1170333 7.70970395 18.1170333 10.2604595 16.0450504 12.3355263 13.4912109 12.3355263 10.9441175 12.3355263 8.86538857 10.2604595 8.86538857 7.70970395 8.86538857 5.15971937 10.9441175 3.08388158 13.4912109 3.08388158z" mask="url(#b)" class="colorFFF svgShape"></path><path fill="#384c6d" d="M48.6569053,40.8215332 L46.6120991,22.9099635 C46.1279297,18.6387875 42.7451043,15.4194079 38.7487793,15.4194079 L30.8750514,15.4194079 C26.8845086,15.4194079 23.5047672,18.6387875 23.0177066,22.9099635 L20.9727076,40.8215332 C20.8034796,42.3197214 21.2656764,43.8098145 22.2407612,44.9015085 C23.0824681,45.8418997 24.1959421,46.3908306 25.4073294,46.4584832 L27.109632,69.5018246 C27.1684185,70.3067177 27.8407047,70.9292763 28.6455978,70.9292763 L40.9811241,70.9292763 C41.7889083,70.9292763 42.4613872,70.3067177 42.5170898,69.5018246 L44.2193925,46.4584832 C45.4276958,46.3908306 46.5442537,45.8447908 47.3861534,44.9015085 C48.3670205,43.8067306 48.8263261,42.3197214 48.6569053,40.8215332 Z M45.0919382,42.8476434 C44.9134586,43.0448191 44.5310573,43.3813477 43.9634303,43.3813477 L42.7880859,43.3813477 C41.9803017,43.3813477 41.3078228,44.004099 41.25,44.8087993 L39.5505885,67.8453947 L30.0797954,67.8453947 L28.3836606,44.8087993 C28.3217902,44.004099 27.6525879,43.3813477 26.8446109,43.3813477 L25.6731214,43.3813477 C25.1085783,43.3813477 24.7230931,43.0448191 24.5438425,42.8476434 C24.1523823,42.4064556 23.9679276,41.795847 24.0386642,41.1702046 L26.0826994,23.2586349 C26.3914731,20.5480957 28.4543971,18.5032895 30.8817974,18.5032895 L38.7547543,18.5032895 C41.1784925,18.5032895 43.2414165,20.5480957 43.5530813,23.2586349 L45.5978875,41.1702046 C45.6686241,41.795847 45.4833984,42.4064556 45.0919382,42.8476434 Z" mask="url(#b)" class="colorFFF svgShape"></path></g><path fill="#384c6d" d="M34.8133609,15.4194079 C39.062757,15.4194079 42.5230649,11.9591 42.5230649,7.70970395 C42.5230649,3.46030787 39.0666118,0 34.8133609,0 C30.5639648,0 27.103657,3.46030787 27.103657,7.70970395 C27.103657,11.9591 30.5639648,15.4194079 34.8133609,15.4194079 Z M34.8133609,3.08388158 C37.3641165,3.08388158 39.4391833,5.1589484 39.4391833,7.70970395 C39.4391833,10.2596885 37.3641165,12.3355263 34.8133609,12.3355263 C32.2633763,12.3355263 30.1875385,10.2596885 30.1875385,7.70970395 C30.1875385,5.15971937 32.2662675,3.08388158 34.8133609,3.08388158 Z" class="colorFFF svgShape"></path></g></svg></g></svg>