<?xml version="1.0" encoding="UTF-8" standalone="no" ?>
<!DOCTYPE svg PUBLIC "-//W3C//DTD SVG 1.1//EN" "http://www.w3.org/Graphics/SVG/1.1/DTD/svg11.dtd">
<svg xmlns="http://www.w3.org/2000/svg" xmlns:xlink="http://www.w3.org/1999/xlink" version="1.1" width="1080" height="1080" viewBox="0 0 1080 1080" xml:space="preserve">
<desc>Created with Fabric.js 4.2.0</desc>
<defs>
</defs>
<rect x="0" y="0" width="100%" height="100%" fill="transparent"></rect>
<g transform="matrix(1 0 0 1 540 540)" id="abab36d9-7aa9-48e5-8c39-906e412278ca"  >
<rect style="stroke: none; stroke-width: 1; stroke-dasharray: none; stroke-linecap: butt; stroke-dashoffset: 0; stroke-linejoin: miter; stroke-miterlimit: 4; fill: rgb(255,255,255); fill-opacity: 0; fill-rule: nonzero; opacity: 1;" vector-effect="non-scaling-stroke"  x="-540" y="-540" rx="0" ry="0" width="1080" height="1080" />
</g>
<g transform="matrix(1 0 0 1 540 540)" id="dfda4177-5935-42d8-b0d2-f2ea540372b4"  >
</g>
<g transform="matrix(1.6 0 0 1.6 540 540)"  >
<g style="" vector-effect="non-scaling-stroke"   >
		<g transform="matrix(3.84 0 0 3.84 0 0)"  >
<path style="stroke: none; stroke-width: 1; stroke-dasharray: none; stroke-linecap: butt; stroke-dashoffset: 0; stroke-linejoin: miter; stroke-miterlimit: 4; fill: rgb(56,76,109); fill-rule: evenodd; opacity: 1;" vector-effect="non-scaling-stroke"  transform=" translate(-35.08, -33.92)" d="M 56.665553 15.4194079 C 60.9157201 15.4194079 64.375257 11.9591 64.375257 7.70970395 C 64.375257 3.46030787 60.9186112 0 56.665553 0 C 52.416157 0 48.9558491 3.46030787 48.9558491 7.70970395 C 48.9558491 11.9591 52.416157 15.4194079 56.665553 15.4194079 z M 56.665553 3.08388158 C 59.2163086 3.08388158 61.2913754 5.15971937 61.2913754 7.70970395 C 61.2913754 10.2604595 59.2193925 12.3355263 56.665553 12.3355263 C 54.1155685 12.3355263 52.0397307 10.2604595 52.0397307 7.70970395 C 52.0397307 5.15971937 54.1184596 3.08388158 56.665553 3.08388158 z M 70.0966283 41.0616905 L 68.1194747 25.2598813 C 67.6412803 21.4086914 64.3511642 18.5063734 60.4714484 18.5063734 L 52.8573448 18.5063734 C 51.999833 18.5063734 51.1363461 18.6576763 50.2884714 18.9595112 C 49.4866622 19.2434211 49.0672543 20.1257967 49.3511642 20.9276059 C 49.6379652 21.7294151 50.5166787 22.1519069 51.3184879 21.8649131 C 51.8334961 21.6827714 52.3513955 21.5902549 52.8573448 21.5902549 L 60.4714484 21.5902549 C 62.7993935 21.5902549 64.7705721 23.3324553 65.0604569 25.6422826 L 67.0368395 41.4440918 C 67.0925421 41.8883635 66.9599352 42.3197214 66.6640753 42.65625 C 66.3674445 42.9922003 65.9578665 43.177426 65.5076198 43.177426 L 64.375257 43.177426 C 63.5643889 43.177426 62.8949938 43.7999846 62.8371711 44.6085398 L 61.3968056 64.764597 L 51.9321803 64.764597 L 50.8223684 49.231471 C 50.7635819 48.3828253 50.0174753 47.7165142 49.1749974 47.8032484 C 48.3271227 47.8618421 47.6856754 48.6019737 47.7475457 49.4498484 L 48.9597039 66.4148592 C 49.0213816 67.2197523 49.6928968 67.8453947 50.4977899 67.8453947 L 62.8333162 67.8453947 C 63.6418714 67.8453947 64.3143503 67.2197523 64.369282 66.4179431 L 65.8096474 46.2522487 C 67.0246968 46.1724532 68.1624563 45.6167763 68.9739027 44.6981651 C 69.8526162 43.7013004 70.2629652 42.3785079 70.0966283 41.0616905 z M 20.9607576 48.1548109 C 20.1001619 48.0742444 19.3758352 48.7345806 19.3141576 49.5822625 L 18.2284385 64.7615132 L 8.76072934 64.7615132 L 7.32344778 44.6048777 C 7.26466129 43.8007556 6.59314607 43.1743421 5.78150699 43.1743421 L 4.64991519 43.1743421 C 4.19966848 43.1743421 3.78931949 42.9891165 3.4934596 42.6533589 C 3.19759971 42.3168303 3.0649928 41.8883635 3.12069542 41.4412007 L 5.09707802 25.6391987 C 5.38407175 23.3293714 7.35505757 21.5871711 9.68608655 21.5871711 L 17.3001902 21.5871711 C 17.6457777 21.5871711 18.0123741 21.6397898 18.4626208 21.7602539 C 19.2862099 21.9635973 20.1310007 21.4825118 20.3470652 20.6589227 C 20.5633224 19.8359118 20.0693231 18.99035 19.2463122 18.7750565 C 18.5341283 18.5898309 17.9167737 18.5032895 17.2971063 18.5032895 L 9.68608655 18.5032895 C 5.80637079 18.5032895 2.51914576 21.4058003 2.03806024 25.2567974 L 0.0609066612 41.0586066 C -0.10234632 42.375424 0.304918791 43.6984092 1.1836323 44.694503 C 1.99527138 45.6136924 3.1328382 46.1685984 4.34808028 46.2491648 L 5.78825298 66.4140882 C 5.8462685 67.2197523 6.51855469 67.8453947 7.32344778 67.8453947 L 19.6589741 67.8453947 C 20.4669511 67.8453947 21.1392373 67.2197523 21.197831 66.4140882 L 22.3853182 49.8014109 C 22.4469958 48.9535362 21.8055484 48.2164885 20.9607576 48.1548109 z M 13.4912109 15.4194079 C 17.741378 15.4194079 21.2009149 11.9591 21.2009149 7.70970395 C 21.2009149 3.46030787 17.7442691 0 13.4912109 0 C 9.24181486 0 5.78150699 3.46030787 5.78150699 7.70970395 C 5.78150699 11.9591 9.24181486 15.4194079 13.4912109 15.4194079 z M 13.4912109 3.08388158 C 16.0419665 3.08388158 18.1170333 5.15971937 18.1170333 7.70970395 C 18.1170333 10.2604595 16.0450504 12.3355263 13.4912109 12.3355263 C 10.9441175 12.3355263 8.86538857 10.2604595 8.86538857 7.70970395 C 8.86538857 5.15971937 10.9441175 3.08388158 13.4912109 3.08388158 z" stroke-linecap="round" />
</g>
		<g transform="matrix(3.84 0 0 3.84 -1.02 35.53)"  >
<path style="stroke: none; stroke-width: 1; stroke-dasharray: none; stroke-linecap: butt; stroke-dashoffset: 0; stroke-linejoin: miter; stroke-miterlimit: 4; fill: rgb(56,76,109); fill-rule: evenodd; opacity: 1;" vector-effect="non-scaling-stroke"  transform=" translate(-34.81, -43.17)" d="M 48.6569053 40.8215332 L 46.6120991 22.9099635 C 46.1279297 18.6387875 42.7451043 15.4194079 38.7487793 15.4194079 L 30.8750514 15.4194079 C 26.8845086 15.4194079 23.5047672 18.6387875 23.0177066 22.9099635 L 20.9727076 40.8215332 C 20.8034796 42.3197214 21.2656764 43.8098145 22.2407612 44.9015085 C 23.0824681 45.8418997 24.1959421 46.3908306 25.4073294 46.4584832 L 27.109632 69.5018246 C 27.1684185 70.3067177 27.8407047 70.9292763 28.6455978 70.9292763 L 40.9811241 70.9292763 C 41.7889083 70.9292763 42.4613872 70.3067177 42.5170898 69.5018246 L 44.2193925 46.4584832 C 45.4276958 46.3908306 46.5442537 45.8447908 47.3861534 44.9015085 C 48.3670205 43.8067306 48.8263261 42.3197214 48.6569053 40.8215332 Z M 45.0919382 42.8476434 C 44.9134586 43.0448191 44.5310573 43.3813477 43.9634303 43.3813477 L 42.7880859 43.3813477 C 41.9803017 43.3813477 41.3078228 44.004099 41.25 44.8087993 L 39.5505885 67.8453947 L 30.0797954 67.8453947 L 28.3836606 44.8087993 C 28.3217902 44.004099 27.6525879 43.3813477 26.8446109 43.3813477 L 25.6731214 43.3813477 C 25.1085783 43.3813477 24.7230931 43.0448191 24.5438425 42.8476434 C 24.1523823 42.4064556 23.9679276 41.795847 24.0386642 41.1702046 L 26.0826994 23.2586349 C 26.3914731 20.5480957 28.4543971 18.5032895 30.8817974 18.5032895 L 38.7547543 18.5032895 C 41.1784925 18.5032895 43.2414165 20.5480957 43.5530813 23.2586349 L 45.5978875 41.1702046 C 45.6686241 41.795847 45.4833984 42.4064556 45.0919382 42.8476434 Z" stroke-linecap="round" />
</g>
		<g transform="matrix(3.84 0 0 3.84 -1.02 -112.5)"  >
<path style="stroke: none; stroke-width: 1; stroke-dasharray: none; stroke-linecap: butt; stroke-dashoffset: 0; stroke-linejoin: miter; stroke-miterlimit: 4; fill: rgb(56,76,109); fill-rule: evenodd; opacity: 1;" vector-effect="non-scaling-stroke"  transform=" translate(-34.81, -7.71)" d="M 34.8133609 15.4194079 C 39.062757 15.4194079 42.5230649 11.9591 42.5230649 7.70970395 C 42.5230649 3.46030787 39.0666118 0 34.8133609 0 C 30.5639648 0 27.103657 3.46030787 27.103657 7.70970395 C 27.103657 11.9591 30.5639648 15.4194079 34.8133609 15.4194079 Z M 34.8133609 3.08388158 C 37.3641165 3.08388158 39.4391833 5.1589484 39.4391833 7.70970395 C 39.4391833 10.2596885 37.3641165 12.3355263 34.8133609 12.3355263 C 32.2633763 12.3355263 30.1875385 10.2596885 30.1875385 7.70970395 C 30.1875385 5.15971937 32.2662675 3.08388158 34.8133609 3.08388158 Z" stroke-linecap="round" />
</g>
</g>
</g>
</svg>