<?xml version="1.0" encoding="UTF-8"?>
<svg width="84px" height="75px" viewBox="0 0 84 75" version="1.1" xmlns="http://www.w3.org/2000/svg" xmlns:xlink="http://www.w3.org/1999/xlink">
    <title>home-10</title>
    <g id="Page-1" stroke="none" stroke-width="1" fill="none" fill-rule="evenodd">
        <g id="Home" transform="translate(-1253.000000, -1475.000000)" fill="#FFFFFF">
            <g id="Group-15" transform="translate(0.000000, 1381.000000)">
                <g id="home-10" transform="translate(1253.000000, 94.000000)">
                    <path d="M80.3750723,23.1429191 L79.5808526,23.1429191 L72.1313584,3.08713873 C71.4793353,1.33114162 69.7825145,0.151517341 67.9094653,0.151517341 L15.3275289,0.151517341 C13.4544798,0.151517341 11.757659,1.33114162 11.1047688,3.08713873 L3.65614162,23.1429191 L2.86192197,23.1429191 C1.28367052,23.1429191 0,24.4265896 0,26.003974 L0,28.3036127 C0,29.8812139 1.28367052,31.1646676 2.86192197,31.1646676 L3.28439306,31.1646676 L3.28439306,57.8900289 C3.28439306,58.5632948 3.83063584,59.1093208 4.50368497,59.1093208 C5.17781792,59.1093208 5.72297688,58.5632948 5.72297688,57.8900289 L5.72297688,31.1646676 L24.8677023,31.1646676 C25.9387283,31.1646676 26.9462428,30.7482659 27.704263,29.9902457 L41.6184971,16.0751445 L55.5327312,29.9902457 C56.2907514,30.7473988 57.2982659,31.1646676 58.3692919,31.1646676 L77.5140173,31.1646676 L77.5140173,34.3976879 C77.5140173,35.070737 78.0600434,35.616763 78.7333092,35.616763 C79.4063584,35.616763 79.9526012,35.070737 79.9526012,34.3976879 L79.9526012,31.1646676 L80.3759393,31.1646676 C81.9533237,31.1646676 83.2369942,29.8812139 83.2369942,28.3036127 L83.2369942,26.003974 C83.2369942,24.4265896 81.9533237,23.1429191 80.3750723,23.1429191 Z M13.3909682,3.93554913 C13.6898844,3.13027457 14.4680636,2.59010116 15.3275289,2.59010116 L67.9094653,2.59010116 C68.7689306,2.59010116 69.5462428,3.13114162 69.846026,3.93554913 L76.9796965,23.1429191 L60.0305636,23.1429191 L44.4550578,7.56632948 C43.6972543,6.80939306 42.6895231,6.39190751 41.6184971,6.39190751 C40.5474711,6.39190751 39.5397399,6.80852601 38.7819364,7.56632948 L23.2064306,23.1429191 L6.25729769,23.1429191 L13.3909682,3.93554913 Z M80.7984104,28.3036127 C80.7984104,28.5364162 80.6087428,28.7260838 80.3750723,28.7260838 L58.3692919,28.7260838 C57.949422,28.7260838 57.5540462,28.5628613 57.2575145,28.2654624 L42.4805636,13.4891618 C42.2518786,13.2606936 41.9419075,13.1319364 41.6184971,13.1319364 C41.2950867,13.1319364 40.9851156,13.2606936 40.7557803,13.4891618 L25.9794798,28.2654624 C25.6820809,28.5628613 25.2875723,28.7260838 24.8677023,28.7260838 L2.86192197,28.7260838 C2.62825145,28.7260838 2.43858382,28.5364162 2.43858382,28.3036127 L2.43858382,26.003974 C2.43858382,25.7711705 2.62825145,25.5815029 2.86192197,25.5815029 L23.7110549,25.5815029 C24.0344653,25.5815029 24.3444364,25.4527457 24.5737717,25.2240607 L40.5067197,9.29111272 C40.8039017,8.99393064 41.1984104,8.83049133 41.6184971,8.83049133 C42.0385838,8.83049133 42.4339595,8.99393064 42.7302746,9.29111272 L58.6640896,25.2240607 C58.8925578,25.4527457 59.2025289,25.5815029 59.5259393,25.5815029 L80.3759393,25.5815029 C80.6087428,25.5815029 80.7984104,25.7711705 80.7984104,26.003974 L80.7984104,28.3036127 Z" id="Fill-1"></path>
                    <path d="M73.3142341,64.9950867 C73.9872832,64.9950867 74.533526,64.4488439 74.533526,63.7757948 L74.533526,42.0986272 C74.533526,41.4244942 73.9872832,40.8793353 73.3142341,40.8793353 L56.8909682,40.8793353 C56.2179191,40.8793353 55.6716763,41.4244942 55.6716763,42.0986272 L55.6716763,63.7757948 C55.6716763,64.4488439 56.2179191,64.9950867 56.8909682,64.9950867 L73.3142341,64.9950867 Z M66.3218931,57.3017341 L72.0949422,57.3017341 L72.0949422,51.528685 L66.3218931,51.528685 L66.3218931,57.3017341 Z M58.1102601,57.3017341 L63.8833092,57.3017341 L63.8833092,51.528685 L58.1102601,51.528685 L58.1102601,57.3017341 Z M58.1102601,62.5565029 L72.0949422,62.5565029 L72.0949422,59.7403179 L58.1102601,59.7403179 L58.1102601,62.5565029 Z M66.3218931,49.0901012 L72.0949422,49.0901012 L72.0949422,43.3179191 L66.3218931,43.3179191 L66.3218931,49.0901012 Z M58.1102601,49.0901012 L63.8833092,49.0901012 L63.8833092,43.3179191 L58.1102601,43.3179191 L58.1102601,49.0901012 Z" id="Fill-2"></path>
                    <path d="M26.346026,64.9950867 C27.0190751,64.9950867 27.5653179,64.4488439 27.5653179,63.7757948 L27.5653179,42.0986272 C27.5653179,41.4244942 27.0190751,40.8793353 26.346026,40.8793353 L9.92276012,40.8793353 C9.24971098,40.8793353 8.70346821,41.4244942 8.70346821,42.0986272 L8.70346821,63.7757948 C8.70346821,64.4488439 9.24971098,64.9950867 9.92276012,64.9950867 L26.346026,64.9950867 Z M19.353685,57.3017341 L25.1267341,57.3017341 L25.1267341,51.528685 L19.353685,51.528685 L19.353685,57.3017341 Z M11.142052,57.3017341 L16.9151012,57.3017341 L16.9151012,51.528685 L11.142052,51.528685 L11.142052,57.3017341 Z M11.142052,62.5565029 L25.1267341,62.5565029 L25.1267341,59.7403179 L11.142052,59.7403179 L11.142052,62.5565029 Z M19.353685,49.0901012 L25.1267341,49.0901012 L25.1267341,43.3179191 L19.353685,43.3179191 L19.353685,49.0901012 Z M11.142052,49.0901012 L16.9151012,49.0901012 L16.9151012,43.3179191 L11.142052,43.3179191 L11.142052,49.0901012 Z" id="Fill-3"></path>
                    <path d="M45.5601156,46.134104 L37.6768786,46.134104 C37.0038295,46.134104 36.4575867,46.6803468 36.4575867,47.353396 L36.4575867,52.6090318 C36.4575867,53.2822977 37.0038295,53.8283237 37.6768786,53.8283237 L45.5601156,53.8283237 C46.2331647,53.8283237 46.7794075,53.2822977 46.7794075,52.6090318 L46.7794075,47.353396 C46.7794075,46.6803468 46.2331647,46.134104 45.5601156,46.134104 Z M38.8961705,51.3897399 L44.3408237,51.3897399 L44.3408237,48.5726879 L38.8961705,48.5726879 L38.8961705,51.3897399 Z" id="Fill-4"></path>
                    <path d="M48.0925578,30.7669075 C48.0925578,27.1970376 45.1883671,24.2926301 41.6184971,24.2926301 C38.0486272,24.2926301 35.1444364,27.1970376 35.1444364,30.7669075 C35.1444364,34.3365607 38.0486272,37.2418353 41.6184971,37.2418353 C45.1883671,37.2418353 48.0925578,34.3365607 48.0925578,30.7669075 Z M37.5830202,30.7669075 C37.5830202,28.5416185 39.3932081,26.7312139 41.6184971,26.7312139 C43.8437861,26.7312139 45.653974,28.5416185 45.653974,30.7669075 C45.653974,32.9919798 43.8437861,34.8032514 41.6184971,34.8032514 C39.3932081,34.8032514 37.5830202,32.9919798 37.5830202,30.7669075 Z" id="Fill-5"></path>
                    <path d="M82.0177023,66.8265173 L79.9526012,66.8265173 L79.9526012,40.1011561 C79.9526012,39.4281069 79.4063584,38.8818642 78.7333092,38.8818642 C78.0600434,38.8818642 77.5140173,39.4281069 77.5140173,40.1011561 L77.5140173,66.8265173 L52.0341763,66.8265173 L52.0341763,42.0986272 C52.0341763,41.4244942 51.4888006,40.8793353 50.8148844,40.8793353 L32.4221098,40.8793353 C31.7481936,40.8793353 31.2028179,41.4244942 31.2028179,42.0986272 L31.2028179,66.8265173 L5.72297688,66.8265173 L5.72297688,63.5937139 C5.72297688,62.920448 5.17695087,62.374422 4.50368497,62.374422 C3.83063584,62.374422 3.28439306,62.920448 3.28439306,63.5937139 L3.28439306,66.8265173 L1.21929191,66.8265173 C0.546242775,66.8265173 0,67.3725434 0,68.0458092 L0,73.6291908 C0,74.3031069 0.546242775,74.8484827 1.21929191,74.8484827 L82.0177023,74.8484827 C82.6907514,74.8484827 83.2369942,74.3031069 83.2369942,73.6291908 L83.2369942,68.0458092 C83.2369942,67.3725434 82.6907514,66.8265173 82.0177023,66.8265173 Z M33.6414017,57.9333815 L35.3781069,57.9333815 C36.0520231,57.9333815 36.5973988,57.3880058 36.5973988,56.7140896 C36.5973988,56.0408237 36.0520231,55.4947977 35.3781069,55.4947977 L33.6414017,55.4947977 L33.6414017,43.3179191 L49.5955925,43.3179191 L49.5955925,66.8265173 L33.6414017,66.8265173 L33.6414017,57.9333815 Z M2.43858382,72.4098988 L80.7984104,72.4098988 L80.7984104,69.2651012 L2.43858382,69.2651012 L2.43858382,72.4098988 Z" id="Fill-6"></path>
                </g>
            </g>
        </g>
    </g>
</svg>