<svg id="SvgjsSvg1022" width="288" height="288" xmlns="http://www.w3.org/2000/svg" version="1.1" xmlns:xlink="http://www.w3.org/1999/xlink" xmlns:svgjs="http://svgjs.com/svgjs"><defs id="SvgjsDefs1023"></defs><g id="SvgjsG1024"><svg xmlns="http://www.w3.org/2000/svg" xmlns:xlink="http://www.w3.org/1999/xlink" width="288" height="288" viewBox="0 0 75 75"><defs><polygon id="a" points=".067 .128 52.041 .128 52.041 29.339 .067 29.339" fill="#ffffff" class="color000 svgShape"></polygon><polygon id="c" points="0 .114 38.258 .114 38.258 27.604 0 27.604" fill="#ffffff" class="color000 svgShape"></polygon></defs><g fill="none" fill-rule="evenodd"><path fill="#384c6d" d="M34.8713764,54.7712788 C34.3141576,54.3624717 33.5312372,54.4813939 33.1216591,55.0386128 L32.9672723,55.2492804 C32.5584653,55.8057283 32.6773874,56.5880705 33.2338353,56.9976485 C33.4566458,57.1616725 33.7172338,57.2414679 33.9747379,57.2414679 C34.3586811,57.2414679 34.7374203,57.0653012 34.9820107,56.7333984 L35.1392887,56.5202251 C35.5482884,55.963199 35.4278243,55.1800858 34.8713764,54.7712788 Z" class="colorFFF svgShape"></path><path fill="#384c6d" d="M35.1973042 66.6754472L31.9794665 60.8237819 34.9843236 56.7310855C35.3931307 56.1738667 35.2734375 55.3909462 34.7162186 54.9821392 34.1591925 54.5725612 33.3760794 54.6930253 32.9672723 55.2500514L29.4888466 59.9867008C29.2005037 60.3789319 29.166581 60.9035773 29.4015342 61.3297312L33.0048571 67.8816303C33.2330644 68.2956414 33.6607602 68.5298237 34.102719 68.5298237 34.3066406 68.5298237 34.5128752 68.4800961 34.7042686 68.3746659 35.3094804 68.0419922 35.5309416 67.2814299 35.1973042 66.6754472zM44.5243113 59.9867008L41.0601485 55.2697111C40.7733476 54.8782509 40.286287 54.6883995 39.8104055 54.7826506 39.3345241 54.875938 38.9557848 55.2365594 38.8376336 55.7070441 38.7472374 56.0684365 38.8225997 56.4510305 39.0430972 56.7513235L42.0329204 60.8237819 38.8368627 66.6363204C38.7352873 66.8207751 38.6817049 67.0285516 38.6817049 67.2392193 38.6817049 67.8107011 39.068732 68.3091334 39.622096 68.4515702 39.7259843 68.4785542 39.8306435 68.4914679 39.9339535 68.4914679 40.3818873 68.4914679 40.8064993 68.2497687 41.0300807 67.8430818L44.6116237 61.3305022C44.8465769 60.9035773 44.8126542 60.3797029 44.5243113 59.9867008zM46.5066689 40.3215589C46.0955489 40.1054944 45.5978875 40.1347913 45.2147153 40.3992342 44.4709216 40.9119295 43.7797466 41.4546926 43.1623921 42.0134534 39.7946006 45.0574373 36.594688 44.6455464 36.4697908 44.6274286 36.3944285 44.6160567 36.3177169 44.6100817 36.2415836 44.6131656 34.9105032 44.6470883 32.5110506 43.4310752 29.9722451 41.4373458 29.584447 41.132427 29.1862407 40.8417712 28.7886128 40.573088 28.4054405 40.3140419 27.910092 40.2884072 27.501285 40.5052426 27.0922852 40.722849 26.837094 41.1474609 26.837094 41.6106214L26.837094 45.9028063C26.837094 46.2830875 27.0095986 46.641396 27.3062294 46.8794331 27.3409231 46.907188 27.376966 46.9335938 27.4145508 46.9576866L36.2882273 52.8868344C36.2889983 52.8876054 36.2905402 52.8881836 36.2920821 52.8897255L36.315404 52.9055304C36.5247225 53.0433414 36.7648797 53.1133069 37.0065789 53.1133069 37.2099224 53.1133069 37.4130731 53.0637721 37.5990697 52.9643169 37.6381964 52.9440789 37.675974 52.9205644 37.7120169 52.8958933 37.7158717 52.8935804 37.7203048 52.8904965 37.7249306 52.8876054 37.7293637 52.8845215 37.7345677 52.8814376 37.7391936 52.8777755L46.5916684 46.9628906C46.627133 46.9403397 46.6618267 46.9162469 46.6949784 46.8898412 46.9991262 46.6527678 47.1760639 46.2890625 47.1760639 45.9035773L47.1760639 41.4290579C47.1760639 40.9645482 46.9185598 40.5376234 46.5066689 40.3215589zM44.6733013 45.233604L37.0065789 50.3570878 29.3398566 45.233604 29.3398566 44.0958445C31.2069542 45.4525596 33.9527652 47.1165065 36.1912778 47.1165065 36.1957108 47.1165065 36.2009149 47.1165065 36.2063117 47.1165065 36.9576223 47.1993858 40.7899234 47.4252801 44.6733013 44.0183619L44.6733013 45.233604z" class="colorFFF svgShape"></path><path fill="#384c6d" d="M38.2405171 51.6565584C38.1586015 51.1604389 37.7866082 50.761269 37.2972348 50.6446597 36.8070904 50.5286287 36.2957442 50.7161672 35.9977642 51.1211194L33.1216591 55.0393837C32.7128521 55.5964098 32.8325452 56.379523 33.3895713 56.7883301 33.6133455 56.952354 33.8721988 57.0315712 34.1297029 57.0315712 34.5144171 57.0315712 34.8939273 56.8546335 35.1392887 56.5202251L38.0003598 52.6231625C38.1630345 52.4101819 38.2578639 52.1459318 38.2578639 51.862793 38.2578639 51.7935984 38.2518889 51.724211 38.2405171 51.6565584zM56.0707494 11.3145688C56.0458856 11.118935 55.4601408 6.88823499 51.4773078 5.21908409 51.5933388 4.47606137 51.581196 3.52140728 51.1091694 2.59219521 50.475239 1.34322317 49.2239541.530042146 47.3905865.173082854 47.311562.158048931 47.2325375.15053197 47.1519711.15053197L30.3561883.15053197C23.536377.15053197 17.9875103 5.69862767 17.9875103 12.51921L17.9875103 19.1094649C17.9875103 20.8268015 18.573255 22.5011565 19.6356522 23.8239489 20.1626105 24.479852 20.8109966 25.6257067 20.9087171 27.357499 20.9472656 28.0334473 21.5133506 28.5559725 22.1939248 28.5372764 22.8708368 28.5183876 23.4099378 27.9642527 23.4099378 27.2865697L23.4099378 18.6944901C24.2591617 15.1800216 27.1593596 14.4963636 27.6577919 14.4036544L33.0908203 14.4036544C33.7299548 14.4036544 34.3579102 14.3067049 34.9586888 14.1139623 35.9915964 13.7826377 37.6306795 13.1728002 38.8241417 12.7194696 39.622096 12.4160927 40.5060136 12.4047209 41.3124486 12.6886308L47.1278783 14.7297749C50.0355931 15.8025802 50.5550344 18.3548777 50.619025 18.7561678L50.619025 29.0686678C50.619025 29.7237999 51.1242033 30.266563 51.7770225 30.3155196 51.8086323 30.3178325 51.8402421 30.3193745 51.8710809 30.3193745 52.4855443 30.3193745 53.0148155 29.8691278 53.1081029 29.2531224 53.112536 29.2207417 53.6125103 25.9930741 55.2238384 23.4091668 55.7847194 22.5094444 56.0805793 21.4840538 56.0805793 20.4434365L56.0805793 11.4726177C56.0805793 11.419999 56.0774954 11.3673802 56.0707494 11.3145688zM53.5780094 20.4426655C53.5780094 21.0014263 53.4205387 21.5563322 53.1215949 22.0493678L53.1215949 18.6703973C53.1215949 18.6252955 53.1194747 18.580772 53.1140779 18.5356702 53.0946109 18.3535285 52.5772898 14.0657766 47.9830772 12.3777369 47.9771022 12.375424 47.9718981 12.3731111 47.9657304 12.3717619L42.1406635 10.326763C41.4839895 10.0956646 40.7974404 9.98117547 40.1106985 9.98117547 39.3721089 9.98117547 38.6342902 10.1137824 37.9348273 10.3801527 36.2641345 11.014854 34.9708316 11.4816766 34.1944644 11.7308928 33.84136 11.8438399 33.4701377 11.9010845 33.0908203 11.9010845L27.5569876 11.9010845C27.5034051 11.9010845 27.4492444 11.9049394 27.3958547 11.9116853 27.1842234 11.9386693 22.1933465 12.648733 20.9374358 18.2789371 20.917005 18.3677914 20.9073679 18.4595369 20.9073679 18.5514751L20.9073679 21.1263235C20.6348299 20.4970189 20.4902729 19.8087351 20.4902729 19.1094649L20.4902729 12.51921C20.4902729 7.07943565 24.916414 2.65329461 30.3561883 2.65329461L47.0253392 2.65329461C47.7157432 2.79997173 48.554559 3.10199938 48.8721988 3.71549907 49.2623098 4.46700247 48.8180381 5.50145199 48.8180381 5.50222296 48.6576763 5.84241365 48.6599892 6.23695775 48.822664 6.57579924 48.985146 6.9154117 49.2916067 7.16308594 49.6576249 7.25116931 52.8430818 8.01770662 53.4928171 11.0728696 53.5780094 11.5676398L53.5780094 20.4426655z" class="colorFFF svgShape"></path><path fill="#384c6d" d="M53.1140779 18.5356702C53.0946109 18.3535285 52.5772898 14.0657766 47.9830772 12.3777369 47.9771022 12.375424 47.9718981 12.3731111 47.9657304 12.3717619L42.1414345 10.326763C40.7777806 9.84799034 39.2840255 9.86745734 37.9348273 10.3795744 36.2641345 11.0142758 34.9708316 11.4816766 34.1944644 11.7301218 33.84136 11.8438399 33.4701377 11.9010845 33.0908203 11.9010845L27.5569876 11.9010845C27.5034051 11.9010845 27.4492444 11.9049394 27.3958547 11.9116853 27.1842234 11.9386693 22.1933465 12.648733 20.9374358 18.2781661 20.917005 18.3677914 20.9073679 18.4589587 20.9073679 18.5507042L20.9073679 29.3082468C20.9073679 29.317113 20.9073679 29.3269428 20.9073679 29.3360017 20.9156558 29.7095369 21.1799059 38.5342568 27.2775108 42.5704795L27.3085424 42.5922595C27.3347553 42.6111482 27.3611611 42.629266 27.3883378 42.6481548 27.7360454 42.8829153 28.0854878 43.1375283 28.4264494 43.4054405 30.2033434 44.8007042 33.5507042 47.1165065 36.1912778 47.1165065 36.1964818 47.1165065 36.2009149 47.1165065 36.2063117 47.1165065 36.3493267 47.1323114 36.6052889 47.1535131 36.9524183 47.1535131 38.4490646 47.1535131 41.6422312 46.7610891 44.8406019 43.8699501 45.37739 43.3852025 45.9804816 42.910092 46.63465 42.4598453L46.7281301 42.3943128C46.758969 42.3725329 46.7890368 42.350753 46.8206466 42.3295513 48.8550447 40.9637772 52.3770302 37.4387079 53.1171618 29.1802657 53.1202457 29.1424882 53.1215949 29.1056743 53.1215949 29.0678968L53.1215949 18.6703973C53.1215949 18.6252955 53.1194747 18.580772 53.1140779 18.5356702zM50.619025 29.011616C49.9369089 36.465165 46.7610891 39.3549548 45.4255757 40.2523643 45.378161 40.2839741 45.3313245 40.3171258 45.2839098 40.3502775L45.2147153 40.3984632C44.4709216 40.9111585 43.7797466 41.4546926 43.1623921 42.0134534 39.8065507 45.0460655 36.6180099 44.6484375 36.4615029 44.6266576 36.3884534 44.6154785 36.314633 44.6108527 36.2415836 44.6131656 34.9105032 44.6470883 32.5110506 43.4310752 29.9722451 41.4373458 29.583676 41.132427 29.1862407 40.8417712 28.7886128 40.573859L28.757774 40.5520791C28.7284771 40.5308774 28.6984092 40.5098684 28.6629446 40.4857756 23.7428043 37.2293894 23.4205387 29.6077688 23.4099378 29.290129L23.4099378 18.6937192C24.2622456 15.1671078 27.1805613 14.4911595 27.655479 14.4036544L33.0908203 14.4036544C33.7299548 14.4036544 34.3579102 14.3059339 34.9586888 14.1139623 35.9915964 13.7826377 37.6306795 13.1728002 38.8241417 12.7194696 39.622096 12.4160927 40.5060136 12.4047209 41.3124486 12.6878598L47.1278783 14.7297749C50.0355931 15.8025802 50.5550344 18.3548777 50.619025 18.7561678L50.619025 29.011616zM38.1254497 51.302683C37.9303942 50.912572 37.5472219 50.6529477 37.1127801 50.6151701 36.6791093 50.5798982 36.2558465 50.7703279 35.9977642 51.1218904L33.000424 55.2041787C32.591617 55.7613975 32.7113101 56.5443179 33.267758 56.953125 33.4905685 57.1173417 33.7501927 57.1971371 34.0076969 57.1971371 34.3918329 57.1971371 34.7703793 57.0209704 35.0159334 56.687333L38.0140445 52.6202714C38.1720934 52.4049779 38.2578639 52.130127 38.2578639 51.862793 38.2578639 51.6685084 38.2127621 51.4765368 38.1254497 51.302683zM38.2060161 71.4510305C37.7361097 70.9593442 36.9591643 70.9331312 36.4568771 71.392244L36.170847 71.654374C35.7431512 72.0458342 35.6400339 72.6805356 35.9231728 73.1872559L35.9322317 73.2030608C36.1226614 73.5455644 36.4638158 73.7789756 36.8521921 73.8323653 36.9102076 73.8406533 36.9674522 73.8445081 37.0246968 73.8445081 37.3544793 73.8445081 37.6728901 73.7142141 37.9093853 73.4779117L38.1863564 73.2007478C38.6674419 72.7196623 38.6765008 71.9427169 38.2060161 71.4510305z" class="colorFFF svgShape"></path><path fill="#384c6d" d="M37.8423109,71.654374 L37.5562808,71.392244 C37.0539936,70.9331312 36.2770482,70.9593442 35.8071418,71.4510305 C35.3366571,71.9427169 35.345716,72.7204333 35.8268015,73.2007478 L36.1037726,73.4786827 C36.3402678,73.7149851 36.6594495,73.8445081 36.9884611,73.8445081 C37.0480186,73.8445081 37.1068051,73.8406533 37.1661698,73.8323653 C37.5555099,73.7766627 37.8964715,73.5403603 38.086323,73.1955438 L38.0946109,73.1797389 C38.372353,72.6737896 38.2676938,72.0435213 37.8423109,71.654374 Z" class="colorFFF svgShape"></path><path fill="#384c6d" d="M37.8633198 71.673841L37.8611996 71.672299C37.668457 71.4916992 37.4184699 71.372777 37.142848 71.3419382 36.7739386 71.3020405 36.4148592 71.4269377 36.1535002 71.6701789L36.1498381 71.673841C35.8967671 71.9043611 35.7498972 72.2287469 35.7423802 72.5714433 35.7348633 72.9139469 35.8682412 73.2445004 36.1107113 73.4854287L36.1242033 73.4989206C36.3682155 73.7413908 36.6873972 73.8626259 37.0065789 73.8626259 37.3265317 73.8626259 37.6472553 73.7406199 37.8912675 73.4966077L37.9039885 73.4831157C38.1456877 73.2414165 38.2782946 72.9116339 38.2707777 72.5699013 38.2632607 72.2279759 38.1156199 71.9043611 37.8633198 71.673841zM37.4123021 50.6514057C36.8944028 50.4850689 36.3252339 50.6778115 36.0097142 51.1211194 35.6566098 51.6182026 35.7153963 52.2956928 36.1452123 52.7278218 36.3869115 52.9710629 36.7084061 53.0953819 37.0322137 53.0953819 37.2837428 53.0953819 37.5358501 53.0200195 37.7542275 52.8664037 38.0869012 52.6322214 38.2858116 52.2505911 38.2858116 51.843326L38.2858116 51.8402421C38.2858116 51.295937 37.9311652 50.8169716 37.4123021 50.6514057z" class="colorFFF svgShape"></path><path fill="#384c6d" d="M38.0236816,51.1114823 L38.0125026,51.0964484 C37.6917789,50.6620066 37.127814,50.4835269 36.6151187,50.6521767 C36.1016524,50.8208265 35.755294,51.3003701 35.755294,51.8402421 L35.755294,51.862022 C35.755294,52.3228696 36.0135691,52.7430484 36.4192922,52.9604621 C36.6037469,53.0591463 36.8063194,53.1081029 37.0088919,53.1081029 C37.2534822,53.1081029 37.4974943,53.0373664 37.7075838,52.8980135 C37.9936138,52.7091257 38.1894403,52.4101819 38.249576,52.0721114 C38.3091334,51.7348119 38.2270251,51.3869115 38.0236816,51.1114823 Z" class="colorFFF svgShape"></path><path fill="#384c6d" d="M51.8928608,47.179726 C51.7633378,46.8372225 51.4902215,46.5683465 51.1452123,46.4449913 L46.347078,44.7253418 C46.3079513,44.7118498 46.2680536,44.6989361 46.2273849,44.6891062 C45.8846885,44.6033357 45.5227179,44.6665553 45.2289782,44.8623818 L36.3387258,50.8027087 C36.3364129,50.8050216 36.3342928,50.8065635 36.3312089,50.8079127 L37.0299008,51.8462171 L36.316175,50.8185136 C36.054816,50.9910182 35.8682412,51.2552683 35.7928788,51.5586451 C35.7506682,51.724982 35.7439222,51.8990286 35.7726408,52.0684493 C35.8050216,52.2617701 35.8817331,52.4448756 35.9977642,52.6036955 L42.506489,61.4675421 C42.7429842,61.7898078 43.1186395,61.9786955 43.5154965,61.9786955 C43.5424805,61.9786955 43.5696572,61.9773463 43.5966411,61.9758044 C44.022795,61.9478567 44.4061601,61.7048083 44.6116237,61.3297312 L51.8192331,48.2263184 C51.9953999,47.9048237 52.0223838,47.5224224 51.8928608,47.179726 Z M43.3632299,58.4062115 L38.789448,52.1759997 L46.0955489,47.2934442 L48.9190353,48.3061138 L43.3632299,58.4062115 Z" class="colorFFF svgShape"></path><g transform="translate(21.973 44.524)" fill="#ffffff" class="color000 svgShape"><mask id="b" fill="#fff"><use xlink:href="#a"></use></mask><path fill="#384c6d" d="M16.2670898 7.12318822C16.2077251 6.78665964 16.0149825 6.48925781 15.7310727 6.2995991L6.81152344.339612459C6.52761359.148990029 6.178364.0844212582 5.84472656.158048931 5.79364977.169420744 5.74315121.184454667 5.69342362.201801501L.895867599 1.92222194C.55105109 2.0455772.277163857 2.31445312.147640831 2.65695672.0181178043 2.99946032.0451017681 3.38128341.221268503 3.70277806L7.42887798 16.8061909C7.63434159 17.181268 8.01770662 17.4243164 8.44386051 17.4522641 8.47084447 17.453806 8.49802118 17.4551552 8.52500514 17.4551552 8.92186215 17.4551552 9.2967465 17.2662675 9.53401264 16.9440019L13.0116674 12.2075452C13.0145585 12.2036904 13.0168714 12.2000283 13.0199553 12.1961734L16.0427375 8.07861328C16.244539 7.80376234 16.3258763 7.45894583 16.2670898 7.12318822zM10.9946161 10.7257401C10.9915322 10.729595 10.988641 10.7340281 10.9855572 10.7378829L8.67650082 13.8826712 3.12146639 3.7825735 5.94495271 2.76990389 13.2510537 7.6524594 10.9946161 10.7257401zM51.978824 24.0190044L50.3646047 14.2712402C49.8555715 11.1987305 47.720369 8.63197728 44.7924162 7.57343493L29.1756399 1.92299291C28.6937834 1.74894634 28.1554533 1.88521536 27.8150699 2.26780942 27.4748792 2.64943976 27.4018298 3.20049085 27.630037 3.65825452L30.8908563 10.1972399 27.6909437 10.2469675C27.2565019 10.2537135 26.8567537 10.4848119 26.6347142 10.858347 26.412482 11.2316895 26.400532 11.693308 26.6015625 12.0787932L27.9137541 14.583676 14.4842208 26.8694747C14.4707288 26.8823885 14.4572368 26.8951095 14.4437449 26.9078305L14.166581 27.1849943C13.7743498 27.5779965 13.6870374 28.183401 13.9536004 28.6704616L13.9632376 28.6885794C14.1831569 29.0890985 14.6041067 29.3390856 15.0618704 29.3390856L47.467298 29.3390856C48.8136051 29.3390856 50.0845498 28.750257 50.9547826 27.7233244 51.8252082 26.6971628 52.1985506 25.3464227 51.978824 24.0190044zM49.0462454 26.1052503C48.6524722 26.5699527 48.0765574 26.836323 47.467298 26.836323L18.2284385 26.836323 30.3147487 15.7800293C30.7341566 15.396857 30.8426706 14.7795025 30.5789988 14.2764443L29.7621556 12.7171567 32.9175447 12.668971C33.3475535 12.662225 33.7434468 12.4357525 33.9670282 12.0681923 34.1908023 11.700054 34.2094984 11.2446032 34.0182977 10.859118L31.2657406 5.34031918 43.9414576 9.92624383C46.0196083 10.6783255 47.5351434 12.499743 47.8957648 14.6792763L49.5099841 24.4278115C49.6094392 25.0285902 49.4407895 25.6399697 49.0462454 26.1052503z" mask="url(#b)" class="colorFFF svgShape"></path></g><path fill="#384c6d" d="M37.8739206,71.6836708 L37.8596577,71.6701789 C37.3641165,71.2222451 36.6037469,71.2417121 36.1324913,71.7160516 L36.1189993,71.7287726 C35.762811,72.0872738 35.6573808,72.6256039 35.8508943,73.0916555 C36.0451789,73.5584781 36.5014006,73.8626259 37.0065789,73.8626259 L37.0337557,73.8626259 C37.551655,73.8626259 38.0153937,73.5440224 38.2013903,73.0613949 C38.3881579,72.5781892 38.2578639,72.0308003 37.8739206,71.6836708 Z" class="colorFFF svgShape"></path><g transform="translate(0 46.258)" fill="#ffffff" class="color000 svgShape"><mask id="d" fill="#fff"><use xlink:href="#c"></use></mask><path fill="#384c6d" d="M37.8347939,25.3894043 C37.5501131,25.1332494 37.1653988,25.0210732 36.7882016,25.0858347 C36.4110043,25.1498252 36.0843056,25.3824656 35.9006219,25.7176449 L35.891563,25.7334498 C35.6280839,26.2145354 35.7078793,26.810881 36.0895097,27.2052323 L36.0941355,27.2098581 C36.3394968,27.4635074 36.6654245,27.5907175 36.9938579,27.5907175 C37.2949219,27.5907175 37.5967568,27.4823962 37.8363358,27.2640188 L37.8498278,27.2520688 C37.9635459,27.1487587 38.0568334,27.0246325 38.1254497,26.8868215 C38.3775571,26.3831851 38.2534308,25.7658306 37.8347939,25.3894043 Z" mask="url(#d)" class="colorFFF svgShape"></path><path fill="#384c6d" d="M37.8889546,25.4653449 L37.8837505,25.4601408 C37.8798957,25.4570569 37.8770045,25.4533948 37.8731497,25.450311 L37.5961786,25.1731471 C37.5832648,25.1596551 37.5697728,25.1469341 37.5562808,25.1347913 L24.1259766,12.8489926 L25.4381682,10.3441098 C25.6399697,9.95862459 25.6280196,9.49700606 25.4057874,9.12366365 C25.1837479,8.7501285 24.7839998,8.51903012 24.349558,8.51228413 L21.1496454,8.46255654 L24.4104646,1.92357113 C24.6386719,1.46580746 24.5648515,0.914756373 24.2246608,0.533126028 C23.8850483,0.15053197 23.3459473,0.0142629523 22.8648617,0.188309519 L7.24808542,5.83875154 C4.32013261,6.89729389 2.1849301,9.46404708 1.6758969,12.5365568 L0.0616776316,22.284321 C-0.158048931,23.6125103 0.215293483,24.9624794 1.08571906,25.989412 C1.95595189,27.0155736 3.22766756,27.6044022 4.57320364,27.6044022 L37.0065789,27.6044022 C37.5132992,27.6044022 37.9702919,27.2987125 38.1630345,26.830348 C38.3565481,26.3619834 38.248034,25.8230751 37.8889546,25.4653449 Z M4.57378187,25.1016396 C3.96394428,25.1016396 3.38880037,24.8352693 2.99425627,24.3705669 C2.60048314,23.9052863 2.43183337,23.2939068 2.53128855,22.6931281 L4.14550781,12.9445929 C4.50612921,10.7642887 6.02166427,8.94364206 8.09962222,8.19156044 L20.774761,3.60563579 L18.0229749,9.12443462 C17.8310033,9.50914885 17.8504703,9.96537058 18.0740517,10.332738 C18.2970549,10.7002981 18.6937192,10.9275416 19.1237279,10.9337094 L22.279117,10.9824733 L21.4622738,12.5417609 C21.198602,13.0448191 21.3071161,13.6621736 21.726524,14.0453459 L33.8128341,25.1016396 L4.57378187,25.1016396 Z" mask="url(#d)" class="colorFFF svgShape"></path></g><path fill="#384c6d" d="M41.2658049,56.3132196 C41.3560084,55.9518272 41.2808388,55.5694259 41.0601485,55.2689402 L38.0153937,51.1218904 C37.69467,50.6860994 37.1308979,50.5120528 36.6172389,50.6807026 C36.3394968,50.7718699 36.1112896,50.9555536 35.9592157,51.1897358 L32.9695852,55.2463893 C32.9266036,55.3044048 32.8882478,55.3668534 32.8566381,55.430844 C32.6517527,55.840422 32.6872173,56.3297954 32.9483835,56.7054508 L34.2216411,58.5336143 L32.865697,67.0827123 C32.8219444,67.3567922 32.870901,67.6383892 33.0048571,67.8816303 L35.910259,73.163934 C36.1301784,73.5636822 36.5503572,73.8121274 37.0065789,73.8121274 C37.4628007,73.8121274 37.8829795,73.5636822 38.1034771,73.163934 L41.0300807,67.8423109 C41.131656,67.6578562 41.1852385,67.4500797 41.1852385,67.2392193 L41.1852385,67.238641 C41.1852385,67.1731086 41.1798417,67.1075761 41.1694336,67.0428146 L39.8194644,58.5341925 L41.0790373,56.7258815 C41.1655787,56.6007915 41.2287983,56.4608604 41.2658049,56.3132196 Z M37.0065789,69.9640214 L35.4045025,67.0511025 L36.7723967,58.4281841 C36.8228953,58.1088096 36.7483039,57.7828819 36.5630782,57.5170898 L35.5151367,56.0113847 L37.0104338,53.9821906 L38.5138261,56.0293097 L37.4778346,57.5170898 C37.292609,57.7821109 37.2182103,58.1088096 37.2685161,58.4281841 L38.6306281,67.0119757 L37.0065789,69.9640214 Z" class="colorFFF svgShape"></path></g></svg></g></svg>